<svg width="18" height="20" viewBox="0 0 18 20" fill="none" xmlns="http://www.w3.org/2000/svg">
    <path fill-rule="evenodd" clip-rule="evenodd" d="M5.00784 7H13.024C13.5744 6.99998 14.0493 6.99997 14.4404 7.03057C14.8532 7.06287 15.2638 7.13419 15.6589 7.32698C16.2483 7.6146 16.7275 8.07355 17.0278 8.63803C17.2291 9.01641 17.3036 9.40963 17.3373 9.80498C17.3693 10.1795 17.3692 10.6344 17.3692 11.1615V15.8386C17.3692 16.3657 17.3693 16.8205 17.3373 17.195C17.3036 17.5904 17.2291 17.9836 17.0278 18.362C16.7275 18.9265 16.2483 19.3854 15.6589 19.673C15.2638 19.8658 14.8532 19.9371 14.4404 19.9694C14.0493 20 13.5744 20 13.024 20H5.00783C4.45741 20 3.98256 20 3.59145 19.9694C3.17865 19.9371 2.76806 19.8658 2.37297 19.673C1.78356 19.3854 1.30434 18.9265 1.00402 18.362C0.802714 17.9836 0.728248 17.5904 0.69452 17.195C0.662566 16.8205 0.662581 16.3657 0.662598 15.8386V11.1614C0.662581 10.6343 0.662566 10.1795 0.69452 9.80498C0.728248 9.40963 0.802714 9.01641 1.00402 8.63803C1.30434 8.07355 1.78356 7.6146 2.37297 7.32698C2.76806 7.13419 3.17865 7.06287 3.59145 7.03057C3.98255 6.99997 4.45744 6.99998 5.00784 7ZM9.01591 13C8.43924 13 7.97175 13.4477 7.97175 14V15C7.97175 15.5523 8.43924 16 9.01591 16C9.59259 16 10.0601 15.5523 10.0601 15V14C10.0601 13.4477 9.59259 13 9.01591 13Z" fill="#626262"/>
    <path fill-rule="evenodd" clip-rule="evenodd" d="M4.83936 4C4.83936 1.79086 6.70931 0 9.01601 0C11.3227 0 13.1927 1.79086 13.1927 4V7H11.1043V4C11.1043 2.89543 10.1694 2 9.01601 2C7.86266 2 6.92768 2.89543 6.92768 4V7H4.83936V4Z" fill="#626262"/>
</svg>
